<svg xmlns="http://www.w3.org/2000/svg" version="1.1" width="480.7mm" height="234.7mm" viewBox = " 0 0 1703.269117 831.6148569999999" >
<!-- Front--> 
<g transform="translate(22.5000185, 22.5000185) " > 
<polygon style="stroke:#000000; fill:none; stroke-width:0.354331" points="17.716549999999998, 0 57.5787875, 0 57.5787875, 17.716549999999998 80.87605074999999, 17.716549999999998 80.87605074999999, 53.503981 76.44691325, 53.503981 76.44691325, 62.362256 80.87605074999999, 62.362256 80.87605074999999, 71.220531 91.86031175, 71.220531 91.86031175, 62.362256 96.28944924999999, 62.362256 96.28944924999999, 53.503981 91.86031175, 53.503981 91.86031175, 17.716549999999998 115.157575, 17.716549999999998 115.157575, 0 161.22060499999998, 0 161.22060499999998, 17.716549999999998 207.283635, 17.716549999999998 207.283635, 0 253.34666499999997, 0 253.34666499999997, 17.716549999999998 299.409695, 17.716549999999998 299.409695, 0 345.47272499999997, 0 345.47272499999997, 17.716549999999998 391.535755, 17.716549999999998 391.535755, 0 437.59878499999996, 0 437.59878499999996, 17.716549999999998 460.89604825, 17.716549999999998 460.89604825, 53.503981 456.46691074999995, 53.503981 456.46691074999995, 62.362256 460.89604825, 62.362256 460.89604825, 71.220531 471.8803092499999, 71.220531 471.8803092499999, 62.362256 476.30944674999995, 62.362256 476.30944674999995, 53.503981 471.8803092499999, 53.503981 471.8803092499999, 17.716549999999998 495.17757249999994, 17.716549999999998 495.17757249999994, 0 535.03981, 0 535.03981, 46.771691999999994 552.75636, 46.771691999999994 552.75636, 93.54338399999999 535.03981, 93.54338399999999 535.03981, 111.43709949999999 499.25237899999996, 111.43709949999999 499.25237899999996, 107.00796199999999 490.39410399999997, 107.00796199999999 490.39410399999997, 111.43709949999999 481.535829, 111.43709949999999 481.535829, 122.42136049999999 490.39410399999997, 122.42136049999999 490.39410399999997, 126.85049799999999 499.25237899999996, 126.85049799999999 499.25237899999996, 122.42136049999999 535.03981, 122.42136049999999 535.03981, 140.31507599999998 552.75636, 140.31507599999998 552.75636, 187.08676799999998 535.03981, 187.08676799999998 535.03981, 233.85846 495.17757249999994, 233.85846 495.17757249999994, 216.14191 471.8803092499999, 216.14191 471.8803092499999, 180.354479 476.30944674999995, 180.354479 476.30944674999995, 171.49620399999998 471.8803092499999, 171.49620399999998 471.8803092499999, 162.63792899999999 460.89604825, 162.63792899999999 460.89604825, 171.49620399999998 456.46691074999995, 171.49620399999998 456.46691074999995, 180.354479 460.89604825, 180.354479 460.89604825, 216.14191 437.59878499999996, 216.14191 437.59878499999996, 233.85846 391.535755, 233.85846 391.535755, 216.14191 345.47272499999997, 216.14191 345.47272499999997, 233.85846 299.409695, 233.85846 299.409695, 216.14191 253.34666499999997, 216.14191 253.34666499999997, 233.85846 207.283635, 233.85846 207.283635, 216.14191 161.22060499999998, 216.14191 161.22060499999998, 233.85846 115.157575, 233.85846 115.157575, 216.14191 91.86031175, 216.14191 91.86031175, 180.354479 96.28944924999999, 180.354479 96.28944924999999, 171.49620399999998 91.86031175, 171.49620399999998 91.86031175, 162.63792899999999 80.87605074999999, 162.63792899999999 80.87605074999999, 171.49620399999998 76.44691325, 171.49620399999998 76.44691325, 180.354479 80.87605074999999, 180.354479 80.87605074999999, 216.14191 57.5787875, 216.14191 57.5787875, 233.85846 17.716549999999998, 233.85845999999998 17.716549999999998, 187.08676799999998 0, 187.08676799999998 0, 140.31507599999998 17.716549999999998, 140.31507599999998 17.716549999999998, 122.42136049999999 53.503981, 122.42136049999999 53.503981, 126.85049799999999 62.362256, 126.85049799999999 62.362256, 122.42136049999999 71.220531, 122.42136049999999 71.220531, 111.43709949999999 62.362256, 111.43709949999999 62.362256, 107.00796199999999 53.503981, 107.00796199999999 53.503981, 111.43709949999999 17.716549999999998, 111.43709949999999 17.716549999999998, 93.54338399999999 0, 93.54338399999999 0, 46.771691999999994 17.716549999999998, 46.771691999999994 "/> 
</g>
<!-- Back--> 
<g transform="translate(575.2563785, 22.5000185) " > 
<polygon style="stroke:#000000; fill:none; stroke-width:0.354331" points="17.716549999999998, 0 57.5787875, 0 57.5787875, 17.716549999999998 80.87605074999999, 17.716549999999998 80.87605074999999, 53.503981 76.44691325, 53.503981 76.44691325, 62.362256 80.87605074999999, 62.362256 80.87605074999999, 71.220531 91.86031175, 71.220531 91.86031175, 62.362256 96.28944924999999, 62.362256 96.28944924999999, 53.503981 91.86031175, 53.503981 91.86031175, 17.716549999999998 115.157575, 17.716549999999998 115.157575, 0 161.22060499999998, 0 161.22060499999998, 17.716549999999998 207.283635, 17.716549999999998 207.283635, 0 253.34666499999997, 0 253.34666499999997, 17.716549999999998 299.409695, 17.716549999999998 299.409695, 0 345.47272499999997, 0 345.47272499999997, 17.716549999999998 391.535755, 17.716549999999998 391.535755, 0 437.59878499999996, 0 437.59878499999996, 17.716549999999998 460.89604825, 17.716549999999998 460.89604825, 53.503981 456.46691074999995, 53.503981 456.46691074999995, 62.362256 460.89604825, 62.362256 460.89604825, 71.220531 471.8803092499999, 71.220531 471.8803092499999, 62.362256 476.30944674999995, 62.362256 476.30944674999995, 53.503981 471.8803092499999, 53.503981 471.8803092499999, 17.716549999999998 495.17757249999994, 17.716549999999998 495.17757249999994, 0 535.03981, 0 535.03981, 46.771691999999994 552.75636, 46.771691999999994 552.75636, 93.54338399999999 535.03981, 93.54338399999999 535.03981, 111.43709949999999 499.25237899999996, 111.43709949999999 499.25237899999996, 107.00796199999999 490.39410399999997, 107.00796199999999 490.39410399999997, 111.43709949999999 481.535829, 111.43709949999999 481.535829, 122.42136049999999 490.39410399999997, 122.42136049999999 490.39410399999997, 126.85049799999999 499.25237899999996, 126.85049799999999 499.25237899999996, 122.42136049999999 535.03981, 122.42136049999999 535.03981, 140.31507599999998 552.75636, 140.31507599999998 552.75636, 187.08676799999998 535.03981, 187.08676799999998 535.03981, 233.85846 495.17757249999994, 233.85846 495.17757249999994, 216.14191 471.8803092499999, 216.14191 471.8803092499999, 180.354479 476.30944674999995, 180.354479 476.30944674999995, 171.49620399999998 471.8803092499999, 171.49620399999998 471.8803092499999, 162.63792899999999 460.89604825, 162.63792899999999 460.89604825, 171.49620399999998 456.46691074999995, 171.49620399999998 456.46691074999995, 180.354479 460.89604825, 180.354479 460.89604825, 216.14191 437.59878499999996, 216.14191 437.59878499999996, 233.85846 391.535755, 233.85846 391.535755, 216.14191 345.47272499999997, 216.14191 345.47272499999997, 233.85846 299.409695, 233.85846 299.409695, 216.14191 253.34666499999997, 216.14191 253.34666499999997, 233.85846 207.283635, 233.85846 207.283635, 216.14191 161.22060499999998, 216.14191 161.22060499999998, 233.85846 115.157575, 233.85846 115.157575, 216.14191 91.86031175, 216.14191 91.86031175, 180.354479 96.28944924999999, 180.354479 96.28944924999999, 171.49620399999998 91.86031175, 171.49620399999998 91.86031175, 162.63792899999999 80.87605074999999, 162.63792899999999 80.87605074999999, 171.49620399999998 76.44691325, 171.49620399999998 76.44691325, 180.354479 80.87605074999999, 180.354479 80.87605074999999, 216.14191 57.5787875, 216.14191 57.5787875, 233.85846 17.716549999999998, 233.85845999999998 17.716549999999998, 187.08676799999998 0, 187.08676799999998 0, 140.31507599999998 17.716549999999998, 140.31507599999998 17.716549999999998, 122.42136049999999 53.503981, 122.42136049999999 53.503981, 126.85049799999999 62.362256, 126.85049799999999 62.362256, 122.42136049999999 71.220531, 122.42136049999999 71.220531, 111.43709949999999 62.362256, 111.43709949999999 62.362256, 107.00796199999999 53.503981, 107.00796199999999 53.503981, 111.43709949999999 17.716549999999998, 111.43709949999999 17.716549999999998, 93.54338399999999 0, 93.54338399999999 0, 46.771691999999994 17.716549999999998, 46.771691999999994 "/> 
</g>
<!-- Left--> 
<g transform="translate(1128.0127385, 22.5000185) " > 
<polygon style="stroke:#000000; fill:none; stroke-width:0.354331" points="0, 17.716549999999998 57.5787875, 17.716549999999998 57.5787875, 0 79.81305774999998, 0 79.81305774999998, 13.110247000000001 92.92330475, 13.110247000000001 92.92330475, 0 115.157575, 0 115.157575, 17.716549999999998 161.22060499999998, 17.716549999999998 161.22060499999998, 0 207.283635, 0 207.283635, 17.716549999999998 253.34666499999997, 17.716549999999998 253.34666499999997, 0 299.409695, 0 299.409695, 17.716549999999998 345.47272499999997, 17.716549999999998 345.47272499999997, 0 391.535755, 0 391.535755, 17.716549999999998 437.59878499999996, 17.716549999999998 437.59878499999996, 0 459.83305525, 0 459.83305525, 13.110247000000001 472.94330224999993, 13.110247000000001 472.94330224999993, 0 495.17757249999994, 0 495.17757249999994, 17.716549999999998 552.75636, 17.716549999999998 552.75636, 46.771691999999994 535.03981, 46.771691999999994 535.03981, 93.54338399999999 552.75636, 93.54338399999999 552.75636, 110.37410649999998 539.646113, 110.37410649999998 539.646113, 123.4843535 552.75636, 123.4843535 552.75636, 140.31507599999998 535.03981, 140.31507599999998 535.03981, 187.08676799999998 552.75636, 187.08676799999998 552.75636, 216.14191 495.17757249999994, 216.14191 495.17757249999994, 233.85846 472.94330224999993, 233.85846 472.94330224999993, 220.74821300000002 459.83305525, 220.74821300000002 459.83305525, 233.85846 437.59878499999996, 233.85846 437.59878499999996, 216.14191 391.535755, 216.14191 391.535755, 233.85846 345.47272499999997, 233.85846 345.47272499999997, 216.14191 299.409695, 216.14191 299.409695, 233.85846 253.34666499999997, 233.85846 253.34666499999997, 216.14191 207.283635, 216.14191 207.283635, 233.85846 161.22060499999998, 233.85846 161.22060499999998, 216.14191 115.157575, 216.14191 115.157575, 233.85846 92.92330475, 233.85846 92.92330475, 220.74821300000002 79.81305774999998, 220.74821300000002 79.81305774999998, 233.85846 57.5787875, 233.85846 57.5787875, 216.14191 0, 216.14191 0, 187.08676799999998 17.716549999999998, 187.08676799999998 17.716549999999998, 140.31507599999998 0, 140.31507599999998 0, 123.4843535 13.110247000000001, 123.4843535 13.110247000000001, 110.37410649999998 0, 110.37410649999998 0, 93.54338399999999 17.716549999999998, 93.54338399999999 17.716549999999998, 46.771691999999994 0, 46.771691999999994 "/> 
</g>
<!-- Right--> 
<g transform="translate(1128.0127385, 256.3584785) " > 
<polygon style="stroke:#000000; fill:none; stroke-width:0.354331" points="0, 17.716549999999998 57.5787875, 17.716549999999998 57.5787875, 0 79.81305774999998, 0 79.81305774999998, 13.110247000000001 92.92330475, 13.110247000000001 92.92330475, 0 115.157575, 0 115.157575, 17.716549999999998 161.22060499999998, 17.716549999999998 161.22060499999998, 0 207.283635, 0 207.283635, 17.716549999999998 253.34666499999997, 17.716549999999998 253.34666499999997, 0 299.409695, 0 299.409695, 17.716549999999998 345.47272499999997, 17.716549999999998 345.47272499999997, 0 391.535755, 0 391.535755, 17.716549999999998 437.59878499999996, 17.716549999999998 437.59878499999996, 0 459.83305525, 0 459.83305525, 13.110247000000001 472.94330224999993, 13.110247000000001 472.94330224999993, 0 495.17757249999994, 0 495.17757249999994, 17.716549999999998 552.75636, 17.716549999999998 552.75636, 46.771691999999994 535.03981, 46.771691999999994 535.03981, 93.54338399999999 552.75636, 93.54338399999999 552.75636, 110.37410649999998 539.646113, 110.37410649999998 539.646113, 123.4843535 552.75636, 123.4843535 552.75636, 140.31507599999998 535.03981, 140.31507599999998 535.03981, 187.08676799999998 552.75636, 187.08676799999998 552.75636, 216.14191 495.17757249999994, 216.14191 495.17757249999994, 233.85846 472.94330224999993, 233.85846 472.94330224999993, 220.74821300000002 459.83305525, 220.74821300000002 459.83305525, 233.85846 437.59878499999996, 233.85846 437.59878499999996, 216.14191 391.535755, 216.14191 391.535755, 233.85846 345.47272499999997, 233.85846 345.47272499999997, 216.14191 299.409695, 216.14191 299.409695, 233.85846 253.34666499999997, 233.85846 253.34666499999997, 216.14191 207.283635, 216.14191 207.283635, 233.85846 161.22060499999998, 233.85846 161.22060499999998, 216.14191 115.157575, 216.14191 115.157575, 233.85846 92.92330475, 233.85846 92.92330475, 220.74821300000002 79.81305774999998, 220.74821300000002 79.81305774999998, 233.85846 57.5787875, 233.85846 57.5787875, 216.14191 0, 216.14191 0, 187.08676799999998 17.716549999999998, 187.08676799999998 17.716549999999998, 140.31507599999998 0, 140.31507599999998 0, 123.4843535 13.110247000000001, 123.4843535 13.110247000000001, 110.37410649999998 0, 110.37410649999998 0, 93.54338399999999 17.716549999999998, 93.54338399999999 17.716549999999998, 46.771691999999994 0, 46.771691999999994 "/> 
</g>
<!-- Top--> 
<g transform="translate(22.5000185, 256.3584785) " > 
<polygon style="stroke:#000000; fill:none; stroke-width:0.354331" points="0, 17.716549999999998 57.5787875, 17.716549999999998 57.5787875, 0 79.81305774999998, 0 79.81305774999998, 13.110247000000001 92.92330475, 13.110247000000001 92.92330475, 0 115.157575, 0 115.157575, 17.716549999999998 161.22060499999998, 17.716549999999998 161.22060499999998, 0 207.283635, 0 207.283635, 17.716549999999998 253.34666499999997, 17.716549999999998 253.34666499999997, 0 299.409695, 0 299.409695, 17.716549999999998 345.47272499999997, 17.716549999999998 345.47272499999997, 0 391.535755, 0 391.535755, 17.716549999999998 437.59878499999996, 17.716549999999998 437.59878499999996, 0 459.83305525, 0 459.83305525, 13.110247000000001 472.94330224999993, 13.110247000000001 472.94330224999993, 0 495.17757249999994, 0 495.17757249999994, 17.716549999999998 552.75636, 17.716549999999998 552.75636, 57.5787875 535.03981, 57.5787875 535.03981, 80.87605074999999 499.25237899999996, 80.87605074999999 499.25237899999996, 76.44691325 490.39410399999997, 76.44691325 490.39410399999997, 80.87605074999999 481.535829, 80.87605074999999 481.535829, 91.86031175 490.39410399999997, 91.86031175 490.39410399999997, 96.28944924999999 499.25237899999996, 96.28944924999999 499.25237899999996, 91.86031175 535.03981, 91.86031175 535.03981, 115.157575 552.75636, 115.157575 552.75636, 161.22060499999998 535.03981, 161.22060499999998 535.03981, 207.283635 552.75636, 207.283635 552.75636, 253.34666499999997 535.03981, 253.34666499999997 535.03981, 299.409695 552.75636, 299.409695 552.75636, 345.47272499999997 535.03981, 345.47272499999997 535.03981, 391.535755 552.75636, 391.535755 552.75636, 437.59878499999996 535.03981, 437.59878499999996 535.03981, 460.89604825 499.25237899999996, 460.89604825 499.25237899999996, 456.46691074999995 490.39410399999997, 456.46691074999995 490.39410399999997, 460.89604825 481.535829, 460.89604825 481.535829, 471.8803092499999 490.39410399999997, 471.8803092499999 490.39410399999997, 476.30944674999995 499.25237899999996, 476.30944674999995 499.25237899999996, 471.8803092499999 535.03981, 471.8803092499999 535.03981, 495.17757249999994 552.75636, 495.17757249999994 552.75636, 535.03981 495.17757249999994, 535.03981 495.17757249999994, 552.75636 472.94330224999993, 552.75636 472.94330224999993, 539.646113 459.83305525, 539.646113 459.83305525, 552.75636 437.59878499999996, 552.75636 437.59878499999996, 535.03981 391.535755, 535.03981 391.535755, 552.75636 345.47272499999997, 552.75636 345.47272499999997, 535.03981 299.409695, 535.03981 299.409695, 552.75636 253.34666499999997, 552.75636 253.34666499999997, 535.03981 207.283635, 535.03981 207.283635, 552.75636 161.22060499999998, 552.75636 161.22060499999998, 535.03981 115.157575, 535.03981 115.157575, 552.75636 92.92330475, 552.75636 92.92330475, 539.646113 79.81305774999998, 539.646113 79.81305774999998, 552.75636 57.5787875, 552.75636 57.5787875, 535.03981 0, 535.03981 0, 495.17757249999994 17.716549999999998, 495.17757249999994 17.716549999999998, 471.8803092499999 53.503981, 471.8803092499999 53.503981, 476.30944674999995 62.362256, 476.30944674999995 62.362256, 471.8803092499999 71.220531, 471.8803092499999 71.220531, 460.89604825 62.362256, 460.89604825 62.362256, 456.46691074999995 53.503981, 456.46691074999995 53.503981, 460.89604825 17.716549999999998, 460.89604825 17.716549999999998, 437.59878499999996 0, 437.59878499999996 0, 391.535755 17.716549999999998, 391.535755 17.716549999999998, 345.47272499999997 0, 345.47272499999997 0, 299.409695 17.716549999999998, 299.409695 17.716549999999998, 253.34666499999997 0, 253.34666499999997 0, 207.283635 17.716549999999998, 207.283635 17.716549999999998, 161.22060499999998 0, 161.22060499999998 0, 115.157575 17.716549999999998, 115.157575 17.716549999999998, 91.86031175 53.503981, 91.86031175 53.503981, 96.28944924999999 62.362256, 96.28944924999999 62.362256, 91.86031175 71.220531, 91.86031175 71.220531, 80.87605074999999 62.362256, 80.87605074999999 62.362256, 76.44691325 53.503981, 76.44691325 53.503981, 80.87605074999999 17.716549999999998, 80.87605074999999 17.716549999999998, 57.5787875 0, 57.5787875 "/> 
</g>
<!-- Bottom--> 
<g transform="translate(575.2563785, 256.3584785) " > 
<polygon style="stroke:#000000; fill:none; stroke-width:0.354331" points="0, 17.716549999999998 57.5787875, 17.716549999999998 57.5787875, 0 79.81305774999998, 0 79.81305774999998, 13.110247000000001 92.92330475, 13.110247000000001 92.92330475, 0 115.157575, 0 115.157575, 17.716549999999998 161.22060499999998, 17.716549999999998 161.22060499999998, 0 207.283635, 0 207.283635, 17.716549999999998 253.34666499999997, 17.716549999999998 253.34666499999997, 0 299.409695, 0 299.409695, 17.716549999999998 345.47272499999997, 17.716549999999998 345.47272499999997, 0 391.535755, 0 391.535755, 17.716549999999998 437.59878499999996, 17.716549999999998 437.59878499999996, 0 459.83305525, 0 459.83305525, 13.110247000000001 472.94330224999993, 13.110247000000001 472.94330224999993, 0 495.17757249999994, 0 495.17757249999994, 17.716549999999998 552.75636, 17.716549999999998 552.75636, 57.5787875 535.03981, 57.5787875 535.03981, 80.87605074999999 499.25237899999996, 80.87605074999999 499.25237899999996, 76.44691325 490.39410399999997, 76.44691325 490.39410399999997, 80.87605074999999 481.535829, 80.87605074999999 481.535829, 91.86031175 490.39410399999997, 91.86031175 490.39410399999997, 96.28944924999999 499.25237899999996, 96.28944924999999 499.25237899999996, 91.86031175 535.03981, 91.86031175 535.03981, 115.157575 552.75636, 115.157575 552.75636, 161.22060499999998 535.03981, 161.22060499999998 535.03981, 207.283635 552.75636, 207.283635 552.75636, 253.34666499999997 535.03981, 253.34666499999997 535.03981, 299.409695 552.75636, 299.409695 552.75636, 345.47272499999997 535.03981, 345.47272499999997 535.03981, 391.535755 552.75636, 391.535755 552.75636, 437.59878499999996 535.03981, 437.59878499999996 535.03981, 460.89604825 499.25237899999996, 460.89604825 499.25237899999996, 456.46691074999995 490.39410399999997, 456.46691074999995 490.39410399999997, 460.89604825 481.535829, 460.89604825 481.535829, 471.8803092499999 490.39410399999997, 471.8803092499999 490.39410399999997, 476.30944674999995 499.25237899999996, 476.30944674999995 499.25237899999996, 471.8803092499999 535.03981, 471.8803092499999 535.03981, 495.17757249999994 552.75636, 495.17757249999994 552.75636, 535.03981 495.17757249999994, 535.03981 495.17757249999994, 552.75636 472.94330224999993, 552.75636 472.94330224999993, 539.646113 459.83305525, 539.646113 459.83305525, 552.75636 437.59878499999996, 552.75636 437.59878499999996, 535.03981 391.535755, 535.03981 391.535755, 552.75636 345.47272499999997, 552.75636 345.47272499999997, 535.03981 299.409695, 535.03981 299.409695, 552.75636 253.34666499999997, 552.75636 253.34666499999997, 535.03981 207.283635, 535.03981 207.283635, 552.75636 161.22060499999998, 552.75636 161.22060499999998, 535.03981 115.157575, 535.03981 115.157575, 552.75636 92.92330475, 552.75636 92.92330475, 539.646113 79.81305774999998, 539.646113 79.81305774999998, 552.75636 57.5787875, 552.75636 57.5787875, 535.03981 0, 535.03981 0, 495.17757249999994 17.716549999999998, 495.17757249999994 17.716549999999998, 471.8803092499999 53.503981, 471.8803092499999 53.503981, 476.30944674999995 62.362256, 476.30944674999995 62.362256, 471.8803092499999 71.220531, 471.8803092499999 71.220531, 460.89604825 62.362256, 460.89604825 62.362256, 456.46691074999995 53.503981, 456.46691074999995 53.503981, 460.89604825 17.716549999999998, 460.89604825 17.716549999999998, 437.59878499999996 0, 437.59878499999996 0, 391.535755 17.716549999999998, 391.535755 17.716549999999998, 345.47272499999997 0, 345.47272499999997 0, 299.409695 17.716549999999998, 299.409695 17.716549999999998, 253.34666499999997 0, 253.34666499999997 0, 207.283635 17.716549999999998, 207.283635 17.716549999999998, 161.22060499999998 0, 161.22060499999998 0, 115.157575 17.716549999999998, 115.157575 17.716549999999998, 91.86031175 53.503981, 91.86031175 53.503981, 96.28944924999999 62.362256, 96.28944924999999 62.362256, 91.86031175 71.220531, 91.86031175 71.220531, 80.87605074999999 62.362256, 80.87605074999999 62.362256, 76.44691325 53.503981, 76.44691325 53.503981, 80.87605074999999 17.716549999999998, 80.87605074999999 17.716549999999998, 57.5787875 0, 57.5787875 "/> 
</g></svg>